PathFileType	4	(X/Y/Z)	C:/ViconProjects/foot_20160225/trc/2_test01_dynamic.trc
DataRate	CameraRate	NumFrames	NumMarkers	Units	OrigDataRate	OrigDataStartFrame	OrigNumFrames
120.000000	120.000000	6	39	mm	120.000000	597	682
Frame#	Time	RCUNE			RNAVI			RMT3			LCUNE			LNAVI			LMT3			ROHEL			RIHEL			LOHEL			LIHEL			RSHAN			LSHAN			RTHI			LTHI			ROWR			RELB			RBSH			LOWR			LELB			LBSH			RHEAD			THEAD			FHEAD			T10			RTOE			RHEL			RMT1			RMT5			RANK			RKNE			LTOE			LHEL			LMT1			LMT5			LANK			LKNE			VBWT			RFWT			LFWT			
		X0	Y0	Z0	X1	Y1	Z1	X2	Y2	Z2	X3	Y3	Z3	X4	Y4	Z4	X5	Y5	Z5	X6	Y6	Z6	X7	Y7	Z7	X8	Y8	Z8	X9	Y9	Z9	X10	Y10	Z10	X11	Y11	Z11	X12	Y12	Z12	X13	Y13	Z13	X14	Y14	Z14	X15	Y15	Z15	X16	Y16	Z16	X17	Y17	Z17	X18	Y18	Z18	X19	Y19	Z19	X20	Y20	Z20	X21	Y21	Z21	X22	Y22	Z22	X23	Y23	Z23	X24	Y24	Z24	X25	Y25	Z25	X26	Y26	Z26	X27	Y27	Z27	X28	Y28	Z28	X29	Y29	Z29	X30	Y30	Z30	X31	Y31	Z31	X32	Y32	Z32	X33	Y33	Z33	X34	Y34	Z34	X35	Y35	Z35	X36	Y36	Z36	X37	Y37	Z37	X38	Y38	Z38	
597	4.975000	-2011.677002	354.019165	97.864273	-2052.326904	264.143066	118.336342	-2105.635010	345.981384	66.370750	-1994.772461	80.990677	34.359241	-2009.342285	181.904892	49.979462	-2099.005127	106.109573	38.585011	-1952.441040	313.143829	138.476257	-1981.681519	244.923401	135.294052	-1921.839478	101.895271	49.748562	-1925.864136	172.290054	50.368210	-2125.178711	294.490601	276.486908	-2055.124268	144.746399	325.522003	-2263.787109	334.181458	621.692261	-2163.985596	109.222870	620.701538	-2075.872314	502.107941	844.632629	-1998.072388	488.652710	1096.604980	-2055.547119	398.193329	1416.779053	-2287.898682	-119.423767	928.182434	-2121.951416	-133.350830	1125.254028	-2094.153076	-5.165290	1436.764404	-2027.691650	227.270691	1668.435059	-2143.643555	220.393402	1725.898071	-2243.256836	197.727325	1631.730835	-1930.802490	116.740341	1284.778687	-2151.601074	340.723938	55.390911	-1935.121582	262.560608	150.496216	-2123.073486	313.484070	69.921837	-2066.858154	374.546753	71.885498	-1988.661865	340.704865	148.753967	-2195.384277	381.201294	494.750061	-2143.323730	136.130341	33.658249	-1890.378296	139.730484	54.077099	-2107.302734	145.646652	42.227711	-2057.616943	70.481293	37.239140	-1959.958984	87.984703	66.771683	-2064.807373	60.850990	461.214752	-1906.192505	175.035065	950.191650	-2126.701416	326.183838	958.194397	-2140.957520	41.373459	954.946716
598	4.983333	-2047.225464	355.469482	90.607841	-2085.791016	266.151001	112.437370	-2142.837891	346.532928	65.146210	-1994.679932	81.984291	33.772999	-2009.702881	181.938995	49.979469	-2099.002441	106.108276	38.506161	-1985.060791	314.359344	128.462433	-2016.155762	244.718521	126.645439	-1921.937988	103.168358	49.672619	-1928.649536	172.532364	50.141842	-2151.472412	294.911743	274.348816	-2056.933350	144.881439	324.413635	-2278.549805	333.370117	623.903259	-2172.153076	108.229767	619.625732	-2074.720459	501.455811	842.122498	-2002.833984	487.629852	1095.688843	-2066.435303	398.505310	1415.269165	-2310.943848	-118.421677	934.400513	-2138.728027	-133.671234	1125.701904	-2105.152344	-4.647700	1436.108032	-2039.161987	228.596008	1667.340332	-2154.905029	221.356934	1724.766602	-2254.626709	198.199570	1630.542236	-1941.614136	116.746483	1284.187988	-2188.639893	341.963593	55.106670	-1967.952271	265.239868	139.322052	-2159.519531	314.257202	68.706528	-2101.589355	376.456055	65.967934	-2021.374878	342.104950	140.380341	-2213.250244	380.636566	495.635590	-2143.354492	136.002731	33.612728	-1890.505981	140.113937	54.572109	-2107.184326	145.682373	42.131931	-2057.603760	70.610870	37.145828	-1960.195923	88.189880	67.317413	-2069.110596	60.827259	460.667572	-1917.165771	175.908249	948.710510	-2137.657471	325.961273	956.902405	-2150.462402	40.665920	953.888916
599	4.991667	-2083.410156	357.757050	84.441597	-2119.801758	267.228821	107.162529	-2178.595459	345.335754	61.024479	-1994.885254	81.152184	34.749668	-2009.779297	182.051422	50.206779	-2098.818115	106.168083	38.365181	-2019.497559	316.685089	118.570396	-2051.966553	246.796219	120.331947	-1922.082397	102.449829	51.066738	-1926.760376	172.621811	51.369610	-2177.895264	295.456635	272.612152	-2060.985352	144.713745	324.443878	-2292.841309	332.488220	625.864380	-2178.127441	109.063057	617.549744	-2073.562012	501.080597	839.825195	-2008.460449	486.855530	1095.286011	-2077.370605	399.570465	1413.738281	-2333.486328	-117.473389	940.383606	-2155.010010	-134.465912	1125.852661	-2116.522705	-4.200060	1435.276489	-2051.461914	229.362976	1666.466553	-2166.486328	222.351303	1723.461060	-2266.019775	198.848633	1629.193359	-1951.595947	116.859932	1283.551025	-2227.266846	342.832886	57.725948	-2001.822876	267.093811	128.559143	-2195.906738	314.824005	67.692436	-2139.521484	378.083496	62.290100	-2054.575439	343.751068	132.386703	-2230.137939	380.717255	496.844604	-2143.384766	135.743759	33.545380	-1891.198486	140.481064	55.174492	-2107.246338	145.662506	42.067348	-2057.572510	70.509117	37.316849	-1960.697144	88.937187	67.611443	-2073.158936	61.087978	459.982239	-1927.986084	176.780487	946.743774	-2148.580322	325.846710	955.341003	-2160.084473	40.432281	952.440186
600	5.000000	-2119.797852	359.947723	78.152397	-2155.025146	267.887238	103.798973	-2215.731445	346.242462	59.670170	-1994.901978	81.314018	34.848640	-2010.214111	182.161484	50.101292	-2098.956787	106.014992	38.463661	-2053.809326	318.599304	108.524277	-2081.437500	253.146408	108.329933	-1924.941406	107.498993	48.664841	-1925.922974	174.871048	53.928101	-2203.841553	296.167908	270.522888	-2062.988770	145.100113	323.115753	-2306.949219	331.777222	627.289246	-2184.602051	109.004753	615.694397	-2072.956299	501.158386	837.701843	-2014.085205	486.190430	1094.432861	-2087.861816	399.928741	1411.950928	-2355.497803	-116.035896	946.620667	-2171.689453	-135.012192	1126.332520	-2127.891846	-3.341920	1434.173950	-2062.435303	230.157974	1664.986206	-2178.266113	223.034973	1721.865723	-2277.705811	199.216171	1627.699097	-1962.732666	117.646797	1282.299072	-2263.610596	344.213165	58.160690	-2035.204346	269.660278	117.897018	-2232.637451	315.748932	67.095467	-2176.989746	379.192932	58.481960	-2088.471924	345.683777	124.471916	-2246.454346	380.405975	497.177887	-2143.347168	135.388977	33.494129	-1891.431274	141.200394	56.204910	-2107.314209	145.635132	41.997341	-2057.536621	70.666672	37.365070	-1960.801147	89.053780	68.196770	-2077.383789	61.428860	459.089600	-1937.392456	177.413528	945.612488	-2159.660400	325.703308	953.904602	-2170.145508	39.941719	951.017090
601	5.008333	-2157.000244	358.040070	71.974487	-2189.800781	269.617035	99.986267	-2253.739746	349.539154	60.829578	-1994.844849	82.486473	34.421349	-2010.593384	182.240082	50.371990	-2098.776611	106.123077	38.293930	-2089.025635	321.074677	98.827477	-2116.005371	253.308060	101.443604	-1924.720947	107.739433	49.334450	-1925.357300	175.631424	54.631859	-2229.942383	296.891357	268.596161	-2066.427490	145.479401	322.871490	-2320.547607	330.893402	627.968323	-2191.304443	108.441330	614.048889	-2072.948975	501.390198	836.074158	-2019.241821	484.981812	1093.623413	-2098.923340	400.381470	1409.929443	-2377.067627	-114.766098	952.490845	-2187.977295	-134.776489	1126.537109	-2139.475342	-2.722180	1432.944702	-2074.609619	231.526520	1663.701172	-2189.700439	224.323807	1720.359985	-2289.376953	199.926849	1626.050293	-1972.939575	117.732819	1281.470215	-2300.740479	344.765808	60.218201	-2069.745605	271.140839	108.441650	-2269.323242	316.553223	66.420120	-2214.042236	380.562286	56.036308	-2122.582275	348.583771	116.677132	-2262.046387	379.234467	497.212433	-2143.371826	134.978592	33.414188	-1891.712036	141.617157	57.233170	-2107.363525	145.592957	41.953751	-2057.262939	70.923859	36.988190	-1960.681641	89.189484	68.577179	-2082.089600	60.989349	458.427368	-1947.750122	178.825562	943.653625	-2170.763916	325.872833	951.940247	-2180.040283	39.483181	949.660400
602	5.016667	-2191.858643	364.045319	66.035347	-2224.096924	271.765411	95.733627	-2290.715576	350.596863	60.687359	-1994.572388	83.128647	34.272259	-2009.842041	182.308075	49.931091	-2098.674805	106.094910	38.266930	-2124.000244	324.296509	90.397079	-2150.445313	255.825562	93.836357	-1923.947754	105.944313	51.231049	-1926.107056	176.116959	55.355770	-2255.909668	297.893982	266.797974	-2069.476074	145.205505	321.734741	-2333.912109	330.373993	628.271851	-2197.956543	108.170624	612.168274	-2072.650879	500.896362	834.288879	-2025.530396	484.612518	1092.922974	-2109.556641	401.237061	1408.327759	-2398.321045	-113.453033	958.504944	-2203.661133	-135.319153	1126.867310	-2150.922852	-1.922360	1431.497559	-2085.831299	232.296387	1661.476074	-2201.508545	225.236755	1718.577881	-2301.043701	200.468826	1624.109131	-1983.958374	118.233261	1280.336792	-2337.417236	344.874939	62.630268	-2104.176514	274.196167	98.718018	-2305.968506	317.481934	67.236641	-2252.227295	382.437469	53.585129	-2156.873535	350.825470	109.442497	-2277.823975	379.058990	496.987671	-2143.372314	134.701096	33.333549	-1891.419189	142.183838	58.366982	-2107.401367	145.538223	41.931240	-2057.114258	71.113762	36.895950	-1960.625122	89.691101	68.941406	-2086.290527	61.108452	457.394623	-1957.718506	178.939835	941.767212	-2181.812500	326.464935	949.513245	-2191.745361	40.721821	948.918030
